ffmpeg started on 2016-12-09 at 18:13:17
Report written to "Output/x264/results/ffmpeg/crowd_run_2160p50placebo8000k.log"
Command line:
Tools/ffmpeg/ffmpeg -benchmark -y -i Input/y4m/crowd_run_2160p50.y4m -c:v libx264 -preset placebo -b:v 8000k -an Output/x264/encoded/crowd_run_2160p50placebo8000k.mkv
ffmpeg version N-82227-gdb23fde Copyright (c) 2000-2016 the FFmpeg developers
  built with gcc 5.4.0 (Ubuntu 5.4.0-6ubuntu1~16.04.2) 20160609
  configuration: --prefix=/home/jaroslav/ffmpeg_build --pkg-config-flags=--static --extra-cflags=-I/home/jaroslav/ffmpeg_build/include --extra-ldflags=-L/home/jaroslav/ffmpeg_build/lib --bindir=/home/jaroslav/bin --enable-gpl --enable-libass --enable-libfdk-aac --enable-libfreetype --enable-libmp3lame --enable-libopus --enable-libtheora --enable-libvorbis --enable-libvpx --enable-libx264 --enable-libx265 --enable-nvenc --enable-libmfx --enable-libxvid --enable-libgsm --enable-libopencore-amrnb --enable-version3 --enable-nonfree
  libavutil      55. 35.100 / 55. 35.100
  libavcodec     57. 66.101 / 57. 66.101
  libavformat    57. 57.100 / 57. 57.100
  libavdevice    57.  2.100 / 57.  2.100
  libavfilter     6. 66.100 /  6. 66.100
  libswscale      4.  3.100 /  4.  3.100
  libswresample   2.  4.100 /  2.  4.100
  libpostproc    54.  2.100 / 54.  2.100
Input #0, yuv4mpegpipe, from 'Input/y4m/crowd_run_2160p50.y4m':
  Duration: 00:00:10.00, start: 0.000000, bitrate: 4976642 kb/s
    Stream #0:0: Video: rawvideo (I420 / 0x30323449), yuv420p(progressive), 3840x2160, SAR 1:1 DAR 16:9, 50 fps, 50 tbr, 50 tbn, 50 tbc
[libx264 @ 0x43491c0] using SAR=1/1
[libx264 @ 0x43491c0] DPB size (16 frames, 518400 mbs) > level limit (5 frames, 184320 mbs)
[libx264 @ 0x43491c0] using cpu capabilities: MMX2 SSE2Fast SSSE3 SSE4.2 AVX FMA3 AVX2 LZCNT BMI2
[libx264 @ 0x43491c0] profile High, level 5.2
[libx264 @ 0x43491c0] 264 - core 148 - H.264/MPEG-4 AVC codec - Copyleft 2003-2016 - http://www.videolan.org/x264.html - options: cabac=1 ref=16 deblock=1:0:0 analyse=0x3:0x133 me=tesa subme=11 psy=1 psy_rd=1.00:0.00 mixed_ref=1 me_range=24 chroma_me=1 trellis=2 8x8dct=1 cqm=0 deadzone=21,11 fast_pskip=0 chroma_qp_offset=-2 threads=6 lookahead_threads=1 sliced_threads=0 nr=0 decimate=1 interlaced=0 bluray_compat=0 constrained_intra=0 bframes=16 b_pyramid=2 b_adapt=2 b_bias=0 direct=3 weightb=1 open_gop=0 weightp=2 keyint=250 keyint_min=25 scenecut=40 intra_refresh=0 rc_lookahead=60 rc=abr mbtree=1 bitrate=8000 ratetol=1.0 qcomp=0.60 qpmin=0 qpmax=69 qpstep=4 ip_ratio=1.40 aq=1:1.00
Output #0, matroska, to 'Output/x264/encoded/crowd_run_2160p50placebo8000k.mkv':
  Metadata:
    encoder         : Lavf57.57.100
    Stream #0:0: Video: h264 (libx264) (H264 / 0x34363248), yuv420p, 3840x2160 [SAR 1:1 DAR 16:9], q=-1--1, 8000 kb/s, 50 fps, 1k tbn, 50 tbc
    Metadata:
      encoder         : Lavc57.66.101 libx264
    Side data:
      cpb: bitrate max/min/avg: 0/0/8000000 buffer size: 0 vbv_delay: -1
Stream mapping:
  Stream #0:0 -> #0:0 (rawvideo (native) -> h264 (libx264))
Press [q] to stop, [?] for help
frame=   18 fps=0.0 q=0.0 size=       0kB time=00:00:00.00 bitrate=N/A speed=   0x    frame=   30 fps= 29 q=0.0 size=       0kB time=00:00:00.00 bitrate=N/A speed=   0x    frame=   41 fps= 27 q=0.0 size=       0kB time=00:00:00.00 bitrate=N/A speed=   0x    frame=   45 fps= 22 q=0.0 size=       0kB time=00:00:00.00 bitrate=N/A speed=   0x    frame=   54 fps= 21 q=0.0 size=       0kB time=00:00:00.00 bitrate=N/A speed=   0x    frame=   63 fps= 20 q=0.0 size=       0kB time=00:00:00.00 bitrate=N/A speed=   0x    frame=   72 fps= 20 q=0.0 size=       0kB time=00:00:00.00 bitrate=N/A speed=   0x    frame=   81 fps= 20 q=0.0 size=       0kB time=00:00:00.00 bitrate=N/A speed=   0x    frame=   84 fps=3.4 q=0.0 size=       0kB time=00:00:00.00 bitrate=N/A speed=   0x    frame=   89 fps=3.3 q=44.0 size=       1kB time=-00:00:00.01 bitrate=N/A speed=N/A    frame=   90 fps=2.8 q=39.0 size=       1kB time=00:00:00.00 bitrate=5888.0kbits/s speed=3.15e-05x    frame=   92 fps=2.8 q=41.0 size=       1kB time=00:00:00.04 bitrate= 143.6kbits/s speed=0.00125x    frame=   95 fps=2.5 q=47.0 size=       1kB time=00:00:00.10 bitrate=  58.3kbits/s speed=0.00267x    frame=   96 fps=2.4 q=46.0 size=       1kB time=00:00:00.12 bitrate=  48.7kbits/s speed=0.00308x    frame=   97 fps=2.4 q=49.0 size=       1kB time=00:00:00.14 bitrate=  41.8kbits/s speed=0.00352x    frame=  100 fps=2.3 q=52.0 size=       1kB time=00:00:00.20 bitrate=  29.3kbits/s speed=0.00462x    frame=  101 fps=2.3 q=52.0 size=       1kB time=00:00:00.22 bitrate=  26.6kbits/s speed=0.00493x    frame=  102 fps=2.2 q=52.0 size=       1kB time=00:00:00.24 bitrate=  24.4kbits/s speed=0.00527x    frame=  105 fps=2.0 q=51.0 size=       1kB time=00:00:00.30 bitrate=  19.6kbits/s speed=0.00582x    frame=  106 fps=2.0 q=51.0 size=       1kB time=00:00:00.32 bitrate=  18.3kbits/s speed=0.0061x    frame=  107 fps=2.0 q=51.0 size=       1kB time=00:00:00.34 bitrate=  17.3kbits/s speed=0.00636x    frame=  111 fps=1.8 q=51.0 size=       1kB time=00:00:00.42 bitrate=  14.0kbits/s speed=0.00676x    frame=  112 fps=1.8 q=51.0 size=       1kB time=00:00:00.44 bitrate=  13.4kbits/s speed=0.00696x    frame=  113 fps=1.7 q=50.0 size=       1kB time=00:00:00.46 bitrate=  12.8kbits/s speed=0.00714x    frame=  115 fps=1.7 q=51.0 size=       1kB time=00:00:00.50 bitrate=  11.8kbits/s speed=0.00741x    frame=  116 fps=1.7 q=50.0 size=       1kB time=00:00:00.52 bitrate=  11.3kbits/s speed=0.00753x    frame=  117 fps=1.6 q=50.0 size=       1kB time=00:00:00.54 bitrate=  10.9kbits/s speed=0.00756x    frame=  118 fps=1.6 q=50.0 size=       1kB time=00:00:00.56 bitrate=  10.5kbits/s speed=0.00776x    frame=  119 fps=1.5 q=50.0 size=       1kB time=00:00:00.58 bitrate=  10.1kbits/s speed=0.00735x    frame=  120 fps=1.5 q=50.0 size=       1kB time=00:00:00.60 bitrate=   9.8kbits/s speed=0.00745x    frame=  121 fps=1.5 q=50.0 size=       1kB time=00:00:00.62 bitrate=   9.5kbits/s speed=0.00756x    frame=  123 fps=1.4 q=50.0 size=       1kB time=00:00:00.66 bitrate=   8.9kbits/s speed=0.00752x    frame=  124 fps=1.4 q=50.0 size=       1kB time=00:00:00.68 bitrate=   8.6kbits/s speed=0.00766x    frame=  125 fps=1.4 q=50.0 size=       1kB time=00:00:00.70 bitrate=   8.4kbits/s speed=0.00777x    frame=  127 fps=1.3 q=50.0 size=       1kB time=00:00:00.74 bitrate=   7.9kbits/s speed=0.00751x    frame=  128 fps=1.3 q=50.0 size=       1kB time=00:00:00.76 bitrate=   7.7kbits/s speed=0.00763x    frame=  129 fps=1.3 q=50.0 size=       1kB time=00:00:00.78 bitrate=   7.5kbits/s speed=0.00772x    frame=  132 fps=1.2 q=50.0 size=       1kB time=00:00:00.84 bitrate=   7.0kbits/s speed=0.00771x    frame=  133 fps=1.2 q=50.0 size=       1kB time=00:00:00.86 bitrate=   6.8kbits/s speed=0.00779x    frame=  134 fps=1.2 q=50.0 size=       1kB time=00:00:00.88 bitrate=   6.7kbits/s speed=0.00784x    frame=  136 fps=1.2 q=50.0 size=       1kB time=00:00:00.92 bitrate=   6.4kbits/s speed=0.00815x    frame=  137 fps=1.1 q=50.0 size=       1kB time=00:00:00.94 bitrate=   6.3kbits/s speed=0.00776x    frame=  138 fps=1.1 q=50.0 size=       1kB time=00:00:00.96 bitrate=   6.1kbits/s speed=0.00782x    frame=  139 fps=1.1 q=50.0 size=       1kB time=00:00:00.98 bitrate=   6.0kbits/s speed=0.00789x    frame=  142 fps=1.1 q=50.0 size=       1kB time=00:00:01.04 bitrate=   5.7kbits/s speed=0.00788x    frame=  143 fps=1.1 q=50.0 size=       1kB time=00:00:01.06 bitrate=   5.5kbits/s speed=0.00793x    frame=  144 fps=1.1 q=50.0 size=       1kB time=00:00:01.08 bitrate=   5.4kbits/s speed=0.00799x    frame=  147 fps=1.0 q=50.0 size=       1kB time=00:00:01.14 bitrate=   5.2kbits/s speed=0.00798x    frame=  148 fps=1.0 q=50.0 size=       1kB time=00:00:01.16 bitrate=   5.1kbits/s speed=0.00806x    frame=  149 fps=1.0 q=50.0 size=       1kB time=00:00:01.18 bitrate=   5.0kbits/s speed=0.00814x    frame=  151 fps=1.0 q=49.0 size=       1kB time=00:00:01.22 bitrate=   4.8kbits/s speed=0.008x    frame=  152 fps=1.0 q=49.0 size=       1kB time=00:00:01.24 bitrate=   4.7kbits/s speed=0.00805x    frame=  153 fps=1.0 q=49.0 size=       1kB time=00:00:01.26 bitrate=   4.7kbits/s speed=0.0081x    frame=  156 fps=1.0 q=49.0 size=       1kB time=00:00:01.32 bitrate=   4.5kbits/s speed=0.00818x    frame=  157 fps=1.0 q=49.0 size=       1kB time=00:00:01.34 bitrate=   4.4kbits/s speed=0.00815x    frame=  158 fps=1.0 q=49.0 size=       1kB time=00:00:01.36 bitrate=   4.3kbits/s speed=0.00821x    frame=  160 fps=0.9 q=49.0 size=       1kB time=00:00:01.40 bitrate=   4.2kbits/s speed=0.00811x    frame=  161 fps=0.9 q=49.0 size=       1kB time=00:00:01.42 bitrate=   4.1kbits/s speed=0.00814x    frame=  162 fps=0.9 q=49.0 size=       1kB time=00:00:01.44 bitrate=   4.1kbits/s speed=0.00819x    frame=  165 fps=0.9 q=49.0 size=       1kB time=00:00:01.50 bitrate=   3.9kbits/s speed=0.00818x    frame=  166 fps=0.9 q=49.0 size=       1kB time=00:00:01.52 bitrate=   3.9kbits/s speed=0.00824x    frame=  167 fps=0.9 q=49.0 size=       1kB time=00:00:01.54 bitrate=   3.8kbits/s speed=0.0083x    frame=  169 fps=0.9 q=49.0 size=       1kB time=00:00:01.58 bitrate=   3.7kbits/s speed=0.00817x    frame=  170 fps=0.9 q=49.0 size=       1kB time=00:00:01.60 bitrate=   3.7kbits/s speed=0.00822x    frame=  171 fps=0.9 q=49.0 size=       1kB time=00:00:01.62 bitrate=   3.6kbits/s speed=0.00826x    frame=  174 fps=0.9 q=49.0 size=       1kB time=00:00:01.68 bitrate=   3.5kbits/s speed=0.00822x    frame=  175 fps=0.8 q=49.0 size=       1kB time=00:00:01.70 bitrate=   3.5kbits/s speed=0.00825x    frame=  176 fps=0.8 q=49.0 size=       1kB time=00:00:01.72 bitrate=   3.4kbits/s speed=0.00829x    frame=  179 fps=0.8 q=49.0 size=       1kB time=00:00:01.78 bitrate=   3.3kbits/s speed=0.00827x    frame=  180 fps=0.8 q=49.0 size=       1kB time=00:00:01.80 bitrate=   3.3kbits/s speed=0.00832x    frame=  181 fps=0.8 q=49.0 size=       1kB time=00:00:01.82 bitrate=   3.2kbits/s speed=0.00838x    frame=  183 fps=0.8 q=49.0 size=       1kB time=00:00:01.86 bitrate=   3.2kbits/s speed=0.00826x    frame=  184 fps=0.8 q=49.0 size=       1kB time=00:00:01.88 bitrate=   3.1kbits/s speed=0.00831x    frame=  185 fps=0.8 q=49.0 size=       1kB time=00:00:01.90 bitrate=   3.1kbits/s speed=0.00837x    frame=  187 fps=0.8 q=49.0 size=       1kB time=00:00:01.94 bitrate=   3.0kbits/s speed=0.00825x    frame=  188 fps=0.8 q=49.0 size=       1kB time=00:00:01.96 bitrate=   3.0kbits/s speed=0.00829x    frame=  189 fps=0.8 q=49.0 size=       1kB time=00:00:01.98 bitrate=   3.0kbits/s speed=0.00834x    frame=  193 fps=0.8 q=49.0 size=       1kB time=00:00:02.06 bitrate=   2.9kbits/s speed=0.00823x    frame=  194 fps=0.8 q=49.0 size=       1kB time=00:00:02.08 bitrate=   2.8kbits/s speed=0.00827x    frame=  195 fps=0.8 q=49.0 size=       1kB time=00:00:02.10 bitrate=   2.8kbits/s speed=0.00831x    frame=  198 fps=0.8 q=48.0 size=       1kB time=00:00:02.16 bitrate=   2.7kbits/s speed=0.00842x    frame=  199 fps=0.8 q=48.0 size=       1kB time=00:00:02.18 bitrate=   2.7kbits/s speed=0.00832x    frame=  200 fps=0.8 q=48.0 size=       1kB time=00:00:02.20 bitrate=   2.7kbits/s speed=0.00835x    frame=  204 fps=0.7 q=48.0 size=       1kB time=00:00:02.28 bitrate=   2.6kbits/s speed=0.00833x    frame=  205 fps=0.7 q=48.0 size=       1kB time=00:00:02.30 bitrate=   2.6kbits/s speed=0.00836x    frame=  206 fps=0.7 q=48.0 size=       1kB time=00:00:02.32 bitrate=   2.5kbits/s speed=0.0084x    frame=  208 fps=0.7 q=48.0 size=       1kB time=00:00:02.36 bitrate=   2.5kbits/s speed=0.00835x    frame=  209 fps=0.7 q=48.0 size=       1kB time=00:00:02.38 bitrate=   2.5kbits/s speed=0.00839x    frame=  210 fps=0.7 q=48.0 size=       1kB time=00:00:02.40 bitrate=   2.5kbits/s speed=0.00842x    frame=  213 fps=0.7 q=48.0 size=       1kB time=00:00:02.46 bitrate=   2.4kbits/s speed=0.00859x    frame=  214 fps=0.7 q=48.0 size=       1kB time=00:00:02.48 bitrate=   2.4kbits/s speed=0.00834x    frame=  215 fps=0.7 q=48.0 size=       1kB time=00:00:02.50 bitrate=   2.4kbits/s speed=0.00837x    frame=  216 fps=0.7 q=48.0 size=       1kB time=00:00:02.52 bitrate=   2.3kbits/s speed=0.0084x    frame=  218 fps=0.7 q=48.0 size=       1kB time=00:00:02.56 bitrate=   2.3kbits/s speed=0.00851x    frame=  219 fps=0.7 q=48.0 size=       1kB time=00:00:02.58 bitrate=   2.3kbits/s speed=0.00849x    frame=  220 fps=0.7 q=48.0 size=       1kB time=00:00:02.60 bitrate=   2.3kbits/s speed=0.00838x    frame=  221 fps=0.7 q=48.0 size=       1kB time=00:00:02.62 bitrate=   2.2kbits/s speed=0.00841x    frame=  225 fps=0.7 q=48.0 size=       1kB time=00:00:02.70 bitrate=   2.2kbits/s speed=0.0084x    frame=  226 fps=0.7 q=48.0 size=       1kB time=00:00:02.72 bitrate=   2.2kbits/s speed=0.00843x    frame=  227 fps=0.7 q=48.0 size=       1kB time=00:00:02.74 bitrate=   2.1kbits/s speed=0.00847x    frame=  229 fps=0.7 q=48.0 size=       1kB time=00:00:02.78 bitrate=   2.1kbits/s speed=0.00839x    frame=  230 fps=0.7 q=48.0 size=       1kB time=00:00:02.80 bitrate=   2.1kbits/s speed=0.00842x    frame=  231 fps=0.7 q=48.0 size=       1kB time=00:00:02.82 bitrate=   2.1kbits/s speed=0.00844x    frame=  233 fps=0.7 q=48.0 size=       1kB time=00:00:02.86 bitrate=   2.1kbits/s speed=0.00854x    frame=  234 fps=0.7 q=48.0 size=       1kB time=00:00:02.88 bitrate=   2.0kbits/s speed=0.00839x    frame=  235 fps=0.7 q=48.0 size=       1kB time=00:00:02.90 bitrate=   2.0kbits/s speed=0.00842x    frame=  236 fps=0.7 q=48.0 size=       1kB time=00:00:02.92 bitrate=   2.0kbits/s speed=0.00846x    frame=  238 fps=0.7 q=48.0 size=       1kB time=00:00:02.96 bitrate=   2.0kbits/s speed=0.00839x    frame=  239 fps=0.7 q=48.0 size=       1kB time=00:00:02.98 bitrate=   2.0kbits/s speed=0.00841x    frame=  240 fps=0.7 q=48.0 size=       1kB time=00:00:03.00 bitrate=   2.0kbits/s speed=0.00843x    frame=  244 fps=0.7 q=48.0 size=       1kB time=00:00:03.08 bitrate=   1.9kbits/s speed=0.00834x    frame=  245 fps=0.7 q=48.0 size=       1kB time=00:00:03.10 bitrate=   1.9kbits/s speed=0.00837x    frame=  246 fps=0.7 q=48.0 size=       1kB time=00:00:03.12 bitrate=   1.9kbits/s speed=0.0084x    frame=  250 fps=0.6 q=48.0 size=       1kB time=00:00:03.20 bitrate=   1.8kbits/s speed=0.00832x    frame=  251 fps=0.7 q=48.0 size=       1kB time=00:00:03.22 bitrate=   1.8kbits/s speed=0.00834x    frame=  252 fps=0.7 q=48.0 size=       1kB time=00:00:03.24 bitrate=   1.8kbits/s speed=0.00837x    frame=  255 fps=0.7 q=48.0 size=       1kB time=00:00:03.30 bitrate=   1.8kbits/s speed=0.00844x    frame=  256 fps=0.6 q=48.0 size=       1kB time=00:00:03.32 bitrate=   1.8kbits/s speed=0.00833x    frame=  257 fps=0.6 q=48.0 size=       1kB time=00:00:03.34 bitrate=   1.8kbits/s speed=0.00835x    frame=  261 fps=0.6 q=48.0 size=       1kB time=00:00:03.42 bitrate=   1.7kbits/s speed=0.00837x    frame=  262 fps=0.6 q=48.0 size=       1kB time=00:00:03.44 bitrate=   1.7kbits/s speed=0.00837x    frame=  263 fps=0.6 q=48.0 size=       1kB time=00:00:03.46 bitrate=   1.7kbits/s speed=0.00839x    frame=  266 fps=0.6 q=48.0 size=       1kB time=00:00:03.52 bitrate=   1.7kbits/s speed=0.00832x    frame=  267 fps=0.6 q=48.0 size=       1kB time=00:00:03.54 bitrate=   1.7kbits/s speed=0.00833x    frame=  268 fps=0.6 q=48.0 size=       1kB time=00:00:03.56 bitrate=   1.7kbits/s speed=0.00833x    frame=  271 fps=0.6 q=48.0 size=       1kB time=00:00:03.62 bitrate=   1.6kbits/s speed=0.00833x    frame=  272 fps=0.6 q=48.0 size=       1kB time=00:00:03.64 bitrate=   1.6kbits/s speed=0.00832x    frame=  273 fps=0.6 q=48.0 size=       1kB time=00:00:03.66 bitrate=   1.6kbits/s speed=0.00833x    frame=  276 fps=0.6 q=48.0 size=       1kB time=00:00:03.72 bitrate=   1.6kbits/s speed=0.00833x    frame=  277 fps=0.6 q=48.0 size=       1kB time=00:00:03.74 bitrate=   1.6kbits/s speed=0.00834x    frame=  278 fps=0.6 q=48.0 size=       1kB time=00:00:03.76 bitrate=   1.6kbits/s speed=0.00836x    frame=  280 fps=0.6 q=48.0 size=       1kB time=00:00:03.80 bitrate=   1.5kbits/s speed=0.0083x    frame=  281 fps=0.6 q=48.0 size=       1kB time=00:00:03.82 bitrate=   1.5kbits/s speed=0.00832x    frame=  282 fps=0.6 q=48.0 size=       1kB time=00:00:03.84 bitrate=   1.5kbits/s speed=0.00833x    frame=  285 fps=0.6 q=48.0 size=       1kB time=00:00:03.90 bitrate=   1.5kbits/s speed=0.0083x    frame=  286 fps=0.6 q=48.0 size=       1kB time=00:00:03.92 bitrate=   1.5kbits/s speed=0.00831x    frame=  287 fps=0.6 q=48.0 size=       1kB time=00:00:03.94 bitrate=   1.5kbits/s speed=0.00833x    frame=  290 fps=0.6 q=48.0 size=       1kB time=00:00:04.00 bitrate=   1.5kbits/s speed=0.00833x    frame=  291 fps=0.6 q=48.0 size=       1kB time=00:00:04.02 bitrate=   1.5kbits/s speed=0.00835x    frame=  292 fps=0.6 q=48.0 size=       1kB time=00:00:04.04 bitrate=   1.5kbits/s speed=0.00836x    frame=  293 fps=0.6 q=48.0 size=       1kB time=00:00:04.06 bitrate=   1.4kbits/s speed=0.00839x    frame=  294 fps=0.6 q=48.0 size=       1kB time=00:00:04.08 bitrate=   1.4kbits/s speed=0.00829x    frame=  295 fps=0.6 q=48.0 size=       1kB time=00:00:04.10 bitrate=   1.4kbits/s speed=0.00831x    frame=  296 fps=0.6 q=48.0 size=       1kB time=00:00:04.12 bitrate=   1.4kbits/s speed=0.00832x    frame=  298 fps=0.6 q=48.0 size=       1kB time=00:00:04.16 bitrate=   1.4kbits/s speed=0.0084x    frame=  299 fps=0.6 q=48.0 size=       1kB time=00:00:04.18 bitrate=   1.4kbits/s speed=0.00829x    frame=  300 fps=0.6 q=48.0 size=       1kB time=00:00:04.20 bitrate=   1.4kbits/s speed=0.00831x    frame=  301 fps=0.6 q=48.0 size=       1kB time=00:00:04.22 bitrate=   1.4kbits/s speed=0.00832x    frame=  304 fps=0.6 q=48.0 size=       1kB time=00:00:04.28 bitrate=   1.4kbits/s speed=0.00832x    frame=  305 fps=0.6 q=48.0 size=       1kB time=00:00:04.30 bitrate=   1.4kbits/s speed=0.00834x    frame=  306 fps=0.6 q=48.0 size=       1kB time=00:00:04.32 bitrate=   1.4kbits/s speed=0.00835x    frame=  308 fps=0.6 q=48.0 size=       1kB time=00:00:04.36 bitrate=   1.4kbits/s speed=0.00826x    frame=  309 fps=0.6 q=48.0 size=       1kB time=00:00:04.38 bitrate=   1.3kbits/s speed=0.00828x    frame=  310 fps=0.6 q=48.0 size=       1kB time=00:00:04.40 bitrate=   1.3kbits/s speed=0.00831x    frame=  313 fps=0.6 q=48.0 size=       1kB time=00:00:04.46 bitrate=   1.3kbits/s speed=0.00829x    frame=  314 fps=0.6 q=48.0 size=       1kB time=00:00:04.48 bitrate=   1.3kbits/s speed=0.00829x    frame=  315 fps=0.6 q=48.0 size=       1kB time=00:00:04.50 bitrate=   1.3kbits/s speed=0.00831x    frame=  318 fps=0.6 q=48.0 size=       1kB time=00:00:04.56 bitrate=   1.3kbits/s speed=0.00826x    frame=  319 fps=0.6 q=48.0 size=       1kB time=00:00:04.58 bitrate=   1.3kbits/s speed=0.00827x    frame=  320 fps=0.6 q=48.0 size=       1kB time=00:00:04.60 bitrate=   1.3kbits/s speed=0.00829x    frame=  323 fps=0.6 q=48.0 size=       1kB time=00:00:04.66 bitrate=   1.3kbits/s speed=0.00825x    frame=  324 fps=0.6 q=48.0 size=       1kB time=00:00:04.68 bitrate=   1.3kbits/s speed=0.00827x    frame=  325 fps=0.6 q=48.0 size=       1kB time=00:00:04.70 bitrate=   1.3kbits/s speed=0.00829x    frame=  328 fps=0.6 q=48.0 size=       1kB time=00:00:04.76 bitrate=   1.2kbits/s speed=0.00824x    frame=  329 fps=0.6 q=48.0 size=       1kB time=00:00:04.78 bitrate=   1.2kbits/s speed=0.00826x    frame=  330 fps=0.6 q=48.0 size=       1kB time=00:00:04.80 bitrate=   1.2kbits/s speed=0.00827x    frame=  333 fps=0.6 q=45.0 size=       1kB time=00:00:04.86 bitrate=   1.2kbits/s speed=0.00826x    frame=  334 fps=0.6 q=48.0 size=       1kB time=00:00:04.88 bitrate=   1.2kbits/s speed=0.00827x    frame=  335 fps=0.6 q=48.0 size=       1kB time=00:00:04.90 bitrate=   1.2kbits/s speed=0.00829x    frame=  338 fps=0.6 q=48.0 size=    4970kB time=00:00:04.96 bitrate=8207.4kbits/s speed=0.00836x    frame=  341 fps=0.6 q=48.0 size=    4970kB time=00:00:05.02 bitrate=8109.3kbits/s speed=0.00845x    frame=  343 fps=0.6 q=48.0 size=    4970kB time=00:00:05.06 bitrate=8045.2kbits/s speed=0.00851x    frame=  344 fps=0.6 q=48.0 size=    4970kB time=00:00:05.08 bitrate=8013.6kbits/s speed=0.00848x    frame=  345 fps=0.6 q=48.0 size=    4970kB time=00:00:05.10 bitrate=7982.1kbits/s speed=0.00851x    frame=  346 fps=0.6 q=48.0 size=    4970kB time=00:00:05.12 bitrate=7951.0kbits/s speed=0.00853x    frame=  349 fps=0.6 q=48.0 size=    4970kB time=00:00:05.18 bitrate=7858.9kbits/s speed=0.00859x    frame=  350 fps=0.6 q=48.0 size=    4970kB time=00:00:05.20 bitrate=7828.7kbits/s speed=0.00859x    frame=  351 fps=0.6 q=48.0 size=    4970kB time=00:00:05.22 bitrate=7798.7kbits/s speed=0.00861x    frame=  353 fps=0.6 q=48.0 size=    4970kB time=00:00:05.26 bitrate=7739.4kbits/s speed=0.00867x    frame=  354 fps=0.6 q=48.0 size=    4970kB time=00:00:05.28 bitrate=7710.1kbits/s speed=0.00864x    frame=  355 fps=0.6 q=48.0 size=    4970kB time=00:00:05.30 bitrate=7681.0kbits/s speed=0.00866x    frame=  356 fps=0.6 q=48.0 size=    4970kB time=00:00:05.32 bitrate=7652.1kbits/s speed=0.00868x    frame=  358 fps=0.6 q=48.0 size=    4970kB time=00:00:05.36 bitrate=7595.0kbits/s speed=0.00866x    frame=  359 fps=0.6 q=48.0 size=    4970kB time=00:00:05.38 bitrate=7566.8kbits/s speed=0.00868x    frame=  360 fps=0.6 q=48.0 size=    4970kB time=00:00:05.40 bitrate=7538.8kbits/s speed=0.0087x    frame=  363 fps=0.6 q=48.0 size=    4970kB time=00:00:05.46 bitrate=7455.9kbits/s speed=0.00868x    frame=  364 fps=0.6 q=48.0 size=    4970kB time=00:00:05.48 bitrate=7428.7kbits/s speed=0.0087x    frame=  365 fps=0.6 q=48.0 size=    4970kB time=00:00:05.50 bitrate=7401.7kbits/s speed=0.00871x    frame=  367 fps=0.6 q=48.0 size=    4970kB time=00:00:05.54 bitrate=7348.3kbits/s speed=0.00877x    frame=  368 fps=0.6 q=48.0 size=    4970kB time=00:00:05.56 bitrate=7321.9kbits/s speed=0.00869x    frame=  369 fps=0.6 q=48.0 size=    4970kB time=00:00:05.58 bitrate=7295.6kbits/s speed=0.0087x    frame=  370 fps=0.6 q=48.0 size=    4970kB time=00:00:05.60 bitrate=7269.6kbits/s speed=0.00871x    frame=  373 fps=0.6 q=48.0 size=    4970kB time=00:00:05.66 bitrate=7192.5kbits/s speed=0.00867x    frame=  374 fps=0.6 q=48.0 size=    4970kB time=00:00:05.68 bitrate=7167.2kbits/s speed=0.00867x    frame=  375 fps=0.6 q=48.0 size=    4970kB time=00:00:05.70 bitrate=7142.1kbits/s speed=0.00869x    frame=  378 fps=0.6 q=48.0 size=    4970kB time=00:00:05.76 bitrate=7067.7kbits/s speed=0.0087x    frame=  379 fps=0.6 q=48.0 size=    4970kB time=00:00:05.78 bitrate=7043.2kbits/s speed=0.0087x    frame=  380 fps=0.6 q=48.0 size=    4970kB time=00:00:05.80 bitrate=7018.9kbits/s speed=0.00872x    frame=  382 fps=0.6 q=48.0 size=    4970kB time=00:00:05.84 bitrate=6970.9kbits/s speed=0.00864x    frame=  383 fps=0.6 q=48.0 size=    4970kB time=00:00:05.86 bitrate=6947.1kbits/s speed=0.00866x    frame=  384 fps=0.6 q=48.0 size=    4970kB time=00:00:05.88 bitrate=6923.5kbits/s speed=0.00867x    frame=  386 fps=0.6 q=48.0 size=    4970kB time=00:00:05.92 bitrate=6876.7kbits/s speed=0.00872x    frame=  387 fps=0.6 q=48.0 size=    4970kB time=00:00:05.94 bitrate=6853.5kbits/s speed=0.00869x    frame=  388 fps=0.6 q=48.0 size=    4970kB time=00:00:05.96 bitrate=6830.5kbits/s speed=0.00868x    frame=  389 fps=0.6 q=48.0 size=    4970kB time=00:00:05.98 bitrate=6807.7kbits/s speed=0.0087x    frame=  391 fps=0.6 q=48.0 size=    4970kB time=00:00:06.02 bitrate=6762.5kbits/s speed=0.00863x    frame=  392 fps=0.6 q=48.0 size=    4970kB time=00:00:06.04 bitrate=6740.1kbits/s speed=0.00864x    frame=  393 fps=0.6 q=48.0 size=    4970kB time=00:00:06.06 bitrate=6717.9kbits/s speed=0.00866x    frame=  396 fps=0.6 q=48.0 size=    4970kB time=00:00:06.12 bitrate=6652.0kbits/s speed=0.00868x    frame=  397 fps=0.6 q=48.0 size=    4970kB time=00:00:06.14 bitrate=6630.3kbits/s speed=0.00864x    frame=  398 fps=0.6 q=48.0 size=    4970kB time=00:00:06.16 bitrate=6608.8kbits/s speed=0.00866x    frame=  402 fps=0.6 q=48.0 size=    4970kB time=00:00:06.24 bitrate=6524.1kbits/s speed=0.00862x    frame=  403 fps=0.6 q=48.0 size=    4970kB time=00:00:06.26 bitrate=6503.3kbits/s speed=0.00863x    frame=  404 fps=0.6 q=48.0 size=    4970kB time=00:00:06.28 bitrate=6482.6kbits/s speed=0.00864x    frame=  406 fps=0.6 q=48.0 size=    4970kB time=00:00:06.32 bitrate=6441.5kbits/s speed=0.00869x    frame=  407 fps=0.6 q=48.0 size=    4970kB time=00:00:06.34 bitrate=6421.2kbits/s speed=0.00865x    frame=  408 fps=0.6 q=48.0 size=    4970kB time=00:00:06.36 bitrate=6401.0kbits/s speed=0.00862x    frame=  409 fps=0.6 q=48.0 size=    4970kB time=00:00:06.38 bitrate=6381.0kbits/s speed=0.00864x    frame=  412 fps=0.6 q=48.0 size=    4970kB time=00:00:06.44 bitrate=6321.5kbits/s speed=0.00861x    frame=  413 fps=0.6 q=48.0 size=    4970kB time=00:00:06.46 bitrate=6302.0kbits/s speed=0.00862x    frame=  414 fps=0.6 q=48.0 size=    4970kB time=00:00:06.48 bitrate=6282.5kbits/s speed=0.00863x    frame=  417 fps=0.6 q=48.0 size=    4970kB time=00:00:06.54 bitrate=6224.9kbits/s speed=0.00864x    frame=  418 fps=0.5 q=48.0 size=    4970kB time=00:00:06.56 bitrate=6205.9kbits/s speed=0.00862x    frame=  419 fps=0.6 q=48.0 size=    4970kB time=00:00:06.58 bitrate=6187.0kbits/s speed=0.00864x    frame=  421 fps=0.5 q=48.0 size=    4970kB time=00:00:06.62 bitrate=6149.7kbits/s speed=0.00859x    frame=  422 fps=0.5 q=48.0 size=    4970kB time=00:00:06.64 bitrate=6131.1kbits/s speed=0.0086x    frame=  423 fps=0.5 q=48.0 size=    4970kB time=00:00:06.66 bitrate=6112.7kbits/s speed=0.00861x    frame=  426 fps=0.5 q=48.0 size=    4970kB time=00:00:06.72 bitrate=6058.2kbits/s speed=0.00863x    frame=  427 fps=0.5 q=48.0 size=    4970kB time=00:00:06.74 bitrate=6040.2kbits/s speed=0.00861x    frame=  428 fps=0.5 q=48.0 size=    4970kB time=00:00:06.76 bitrate=6022.3kbits/s speed=0.00862x    frame=  430 fps=0.5 q=48.0 size=    4970kB time=00:00:06.80 bitrate=5986.9kbits/s speed=0.00858x    frame=  431 fps=0.5 q=48.0 size=    4970kB time=00:00:06.82 bitrate=5969.3kbits/s speed=0.00859x    frame=  432 fps=0.5 q=48.0 size=    4970kB time=00:00:06.84 bitrate=5951.9kbits/s speed=0.0086x    frame=  436 fps=0.5 q=48.0 size=    4970kB time=00:00:06.92 bitrate=5883.1kbits/s speed=0.00857x    frame=  437 fps=0.5 q=48.0 size=    4970kB time=00:00:06.94 bitrate=5866.1kbits/s speed=0.00857x    frame=  438 fps=0.5 q=48.0 size=    4970kB time=00:00:06.96 bitrate=5849.3kbits/s speed=0.00858x    frame=  440 fps=0.5 q=48.0 size=    4970kB time=00:00:07.00 bitrate=5815.9kbits/s speed=0.0086x    frame=  441 fps=0.5 q=48.0 size=    4970kB time=00:00:07.02 bitrate=5799.3kbits/s speed=0.00861x    frame=  442 fps=0.5 q=48.0 size=    4970kB time=00:00:07.04 bitrate=5782.8kbits/s speed=0.00861x    frame=  443 fps=0.5 q=48.0 size=    4970kB time=00:00:07.06 bitrate=5766.5kbits/s speed=0.00861x    frame=  444 fps=0.5 q=48.0 size=    4970kB time=00:00:07.08 bitrate=5750.2kbits/s speed=0.00862x    frame=  445 fps=0.5 q=48.0 size=    4970kB time=00:00:07.10 bitrate=5734.0kbits/s speed=0.00857x    frame=  446 fps=0.5 q=48.0 size=    4970kB time=00:00:07.12 bitrate=5717.9kbits/s speed=0.00857x    frame=  447 fps=0.5 q=48.0 size=    4970kB time=00:00:07.14 bitrate=5701.8kbits/s speed=0.00858x    frame=  449 fps=0.5 q=48.0 size=    4970kB time=00:00:07.18 bitrate=5670.1kbits/s speed=0.00857x    frame=  450 fps=0.5 q=48.0 size=    4970kB time=00:00:07.20 bitrate=5654.3kbits/s speed=0.00858x    frame=  451 fps=0.5 q=48.0 size=    4970kB time=00:00:07.22 bitrate=5638.7kbits/s speed=0.00858x    frame=  453 fps=0.5 q=48.0 size=    4970kB time=00:00:07.26 bitrate=5607.6kbits/s speed=0.00862x    frame=  455 fps=0.5 q=48.0 size=    4970kB time=00:00:07.30 bitrate=5576.9kbits/s speed=0.00855x    frame=  456 fps=0.5 q=48.0 size=    4970kB time=00:00:07.32 bitrate=5561.7kbits/s speed=0.00856x    frame=  457 fps=0.5 q=48.0 size=    4970kB time=00:00:07.34 bitrate=5546.5kbits/s speed=0.00858x    frame=  459 fps=0.5 q=48.0 size=    4970kB time=00:00:07.38 bitrate=5516.4kbits/s speed=0.00858x    frame=  460 fps=0.5 q=48.0 size=    4970kB time=00:00:07.40 bitrate=5501.5kbits/s speed=0.00858x    frame=  461 fps=0.5 q=48.0 size=    4970kB time=00:00:07.42 bitrate=5486.7kbits/s speed=0.00858x    frame=  462 fps=0.5 q=48.0 size=    4970kB time=00:00:07.44 bitrate=5472.0kbits/s speed=0.00859x    frame=  463 fps=0.5 q=48.0 size=    4970kB time=00:00:07.46 bitrate=5457.3kbits/s speed=0.0086x    frame=  465 fps=0.5 q=48.0 size=    4970kB time=00:00:07.50 bitrate=5428.2kbits/s speed=0.00855x    frame=  466 fps=0.5 q=48.0 size=    4970kB time=00:00:07.52 bitrate=5413.8kbits/s speed=0.00856x    frame=  467 fps=0.5 q=48.0 size=    4970kB time=00:00:07.54 bitrate=5399.4kbits/s speed=0.00857x    frame=  469 fps=0.5 q=48.0 size=    4970kB time=00:00:07.58 bitrate=5370.9kbits/s speed=0.00857x    frame=  470 fps=0.5 q=48.0 size=    4970kB time=00:00:07.60 bitrate=5356.8kbits/s speed=0.00858x    frame=  471 fps=0.5 q=48.0 size=    4970kB time=00:00:07.62 bitrate=5342.7kbits/s speed=0.00859x    frame=  472 fps=0.5 q=48.0 size=    4970kB time=00:00:07.64 bitrate=5328.7kbits/s speed=0.00861x    frame=  473 fps=0.5 q=48.0 size=    4970kB time=00:00:07.66 bitrate=5314.8kbits/s speed=0.00855x    frame=  474 fps=0.5 q=48.0 size=    4970kB time=00:00:07.68 bitrate=5301.0kbits/s speed=0.00856x    frame=  475 fps=0.5 q=48.0 size=    4970kB time=00:00:07.70 bitrate=5287.2kbits/s speed=0.00857x    frame=  477 fps=0.5 q=48.0 size=    4970kB time=00:00:07.74 bitrate=5259.9kbits/s speed=0.00857x    frame=  478 fps=0.5 q=48.0 size=    4970kB time=00:00:07.76 bitrate=5246.3kbits/s speed=0.00858x    frame=  479 fps=0.5 q=48.0 size=    4970kB time=00:00:07.78 bitrate=5232.9kbits/s speed=0.0086x    frame=  480 fps=0.5 q=48.0 size=    4970kB time=00:00:07.80 bitrate=5219.4kbits/s speed=0.00854x    frame=  481 fps=0.5 q=48.0 size=    4970kB time=00:00:07.82 bitrate=5206.1kbits/s speed=0.00856x    frame=  482 fps=0.5 q=48.0 size=    4970kB time=00:00:07.84 bitrate=5192.8kbits/s speed=0.00857x    frame=  483 fps=0.5 q=48.0 size=    4970kB time=00:00:07.86 bitrate=5179.6kbits/s speed=0.00856x    frame=  484 fps=0.5 q=48.0 size=    4970kB time=00:00:07.88 bitrate=5166.5kbits/s speed=0.00856x    frame=  485 fps=0.5 q=48.0 size=    4970kB time=00:00:07.90 bitrate=5153.4kbits/s speed=0.00858x    frame=  486 fps=0.5 q=48.0 size=    4970kB time=00:00:07.92 bitrate=5140.4kbits/s speed=0.00859x    frame=  487 fps=0.5 q=48.0 size=    4970kB time=00:00:07.94 bitrate=5127.4kbits/s speed=0.00854x    frame=  488 fps=0.5 q=48.0 size=    4970kB time=00:00:07.96 bitrate=5114.5kbits/s speed=0.00855x    frame=  489 fps=0.5 q=48.0 size=    4970kB time=00:00:07.98 bitrate=5101.7kbits/s speed=0.00856x    frame=  490 fps=0.5 q=48.0 size=    4970kB time=00:00:08.00 bitrate=5089.0kbits/s speed=0.00855x    frame=  491 fps=0.5 q=48.0 size=    4970kB time=00:00:08.02 bitrate=5076.3kbits/s speed=0.00856x    frame=  492 fps=0.5 q=48.0 size=    4970kB time=00:00:08.04 bitrate=5063.7kbits/s speed=0.00857x    frame=  494 fps=0.5 q=48.0 size=    4970kB time=00:00:08.08 bitrate=5038.6kbits/s speed=0.00853x    frame=  495 fps=0.5 q=48.0 size=    4970kB time=00:00:08.10 bitrate=5026.2kbits/s speed=0.00854x    frame=  496 fps=0.5 q=48.0 size=    4970kB time=00:00:08.12 bitrate=5013.8kbits/s speed=0.00855x    frame=  498 fps=0.5 q=48.0 size=    4970kB time=00:00:08.16 bitrate=4989.2kbits/s speed=0.00854x    frame=  499 fps=0.5 q=48.0 size=    4970kB time=00:00:08.18 bitrate=4977.0kbits/s speed=0.00855x    frame=  500 fps=0.5 q=48.0 size=    4970kB time=00:00:08.20 bitrate=4964.9kbits/s speed=0.00856x    frame=  500 fps=0.4 q=-1.0 Lsize=    9776kB time=00:00:09.94 bitrate=8055.7kbits/s speed=0.00855x    
video:9771kB audio:0kB subtitle:0kB other streams:0kB global headers:0kB muxing overhead: 0.044964%
bench: utime=4456.920s
bench: maxrss=4911672kB
[libx264 @ 0x43491c0] frame I:2     Avg QP:38.65  size:283654
[libx264 @ 0x43491c0] frame P:108   Avg QP:48.25  size: 40466
[libx264 @ 0x43491c0] frame B:390   Avg QP:48.84  size: 12993
[libx264 @ 0x43491c0] consecutive B-frames:  0.6%  0.4%  3.6% 32.8% 41.0% 21.6%  0.0%  0.0%  0.0%  0.0%  0.0%  0.0%  0.0%  0.0%  0.0%  0.0%  0.0%
[libx264 @ 0x43491c0] mb I  I16..4: 21.0% 69.7%  9.3%
[libx264 @ 0x43491c0] mb P  I16..4:  1.4%  1.5%  0.0%  P16..4: 30.5% 18.0%  4.1%  0.1%  0.0%    skip:44.3%
[libx264 @ 0x43491c0] mb B  I16..4:  0.0%  0.1%  0.0%  B16..8: 36.3%  4.1%  0.1%  direct: 0.1%  skip:59.3%  L0:45.4% L1:54.1% BI: 0.6%
[libx264 @ 0x43491c0] final ratefactor: 39.62
[libx264 @ 0x43491c0] 8x8 transform intra:58.5% inter:91.0%
[libx264 @ 0x43491c0] direct mvs  spatial:99.2% temporal:0.8%
[libx264 @ 0x43491c0] coded y,uvDC,uvAC intra: 28.3% 42.6% 13.8% inter: 0.9% 3.2% 0.0%
[libx264 @ 0x43491c0] i16 v,h,dc,p: 27% 22%  2% 49%
[libx264 @ 0x43491c0] i8 v,h,dc,ddl,ddr,vr,hd,vl,hu:  4%  2%  4% 13% 18% 15% 17% 13% 14%
[libx264 @ 0x43491c0] i4 v,h,dc,ddl,ddr,vr,hd,vl,hu:  5%  2% 14% 16% 16% 12% 12%  9% 13%
[libx264 @ 0x43491c0] i8c dc,h,v,p: 48% 20% 14% 17%
[libx264 @ 0x43491c0] Weighted P-Frames: Y:0.0% UV:0.0%
[libx264 @ 0x43491c0] ref P L0: 57.2%  4.0% 15.3%  4.5%  3.7%  3.3%  3.0%  1.3%  1.1%  1.0%  1.0%  0.9%  1.0%  1.0%  1.0%  0.5%
[libx264 @ 0x43491c0] ref B L0: 95.0%  2.3%  1.0%  0.3%  0.3%  0.2%  0.2%  0.1%  0.1%  0.1%  0.1%  0.1%  0.1%  0.1%  0.1%
[libx264 @ 0x43491c0] ref B L1: 98.9%  1.1%
[libx264 @ 0x43491c0] kb/s:8004.00
